inDegrees=no
num_controls=7
num_derivatives=13
num_iterations=49
num_multipliers=7
num_parameters=0
num_slacks=7
num_states=26
objective=0.426467
objective_accelerations=0.060088
objective_balance=0.001141
objective_effort=0.015656
objective_height=0.343620
objective_ligament=0.005962
solver_duration=720.881964
status=Solve_Succeeded
success=true
DataType=double
version=3
OpenSimVersion=4.5
endheader
time	/jointset/ground_pelvis/pelvis_tilt/value	/jointset/ground_pelvis/pelvis_tx/value	/jointset/ground_pelvis/pelvis_ty/value	/jointset/hip_l/hip_flexion_l/value	/jointset/hip_l/hip_adduction_l/value	/jointset/hip_l/hip_rotation_l/value	/jointset/back/lumbar_extension/value	/jointset/patellofemoral_l/patellar_flexion_l/value	/jointset/knee_l/knee_flexion_l/value	/jointset/knee_l/knee_adduction_l/value	/jointset/knee_l/knee_rotation_l/value	/jointset/ankle_l/ankle_angle_l/value	/jointset/subtalar_l/subtalar_angle_l/value	/jointset/ground_pelvis/pelvis_tilt/speed	/jointset/ground_pelvis/pelvis_tx/speed	/jointset/ground_pelvis/pelvis_ty/speed	/jointset/hip_l/hip_flexion_l/speed	/jointset/hip_l/hip_adduction_l/speed	/jointset/hip_l/hip_rotation_l/speed	/jointset/back/lumbar_extension/speed	/jointset/patellofemoral_l/patellar_flexion_l/speed	/jointset/knee_l/knee_flexion_l/speed	/jointset/knee_l/knee_adduction_l/speed	/jointset/knee_l/knee_rotation_l/speed	/jointset/ankle_l/ankle_angle_l/speed	/jointset/subtalar_l/subtalar_angle_l/speed	/forceset/tau_hip_flexion_l	/forceset/tau_hip_adduction_l	/forceset/tau_hip_rotation_l	/forceset/tau_knee_flexion_l	/forceset/tau_ankle_angle_l	/forceset/tau_subtalar_angle_l	/forceset/tau_lumbar_extension	lambda_cid13_p0	lambda_cid13_p1	lambda_cid13_p2	lambda_cid13_p3	lambda_cid13_p4	lambda_cid13_p5	lambda_cid14_p0	/jointset/ground_pelvis/pelvis_tilt/accel	/jointset/ground_pelvis/pelvis_tx/accel	/jointset/ground_pelvis/pelvis_ty/accel	/jointset/hip_l/hip_flexion_l/accel	/jointset/hip_l/hip_adduction_l/accel	/jointset/hip_l/hip_rotation_l/accel	/jointset/back/lumbar_extension/accel	/jointset/patellofemoral_l/patellar_flexion_l/accel	/jointset/knee_l/knee_flexion_l/accel	/jointset/knee_l/knee_adduction_l/accel	/jointset/knee_l/knee_rotation_l/accel	/jointset/ankle_l/ankle_angle_l/accel	/jointset/subtalar_l/subtalar_angle_l/accel	gamma_cid13_p0	gamma_cid13_p1	gamma_cid13_p2	gamma_cid13_p3	gamma_cid13_p4	gamma_cid13_p5	gamma_cid14_p0
0.5	-0.2204507372137521	0.03280064268457059	0.769125137261527	1.001233753408262	-0.3622033322400229	-0.002476371099712711	-0.4007257931401696	0.9723078894684754	0.9723078894683715	-0.02711690668514426	-0.1745230267908326	0.3213868292148883	0.1685362887722345	-0.7536907881660764	-0.1734706520411623	-0.5390267583675172	2.428746134186968	0.04284216122141072	0.5272206071850011	-0.3084629372258404	2.038989101735543	2.038989101735221	0.3384191413480547	0.0001365640842189053	0.5337959049800927	0.2871544742827697	-0.1051700379146556	0.07862741043098249	-0.002889535429438505	-0.197013772121849	0.009466596634222621	-0.01707730678567365	0.116944557406036	-24.23528253661942	16.51248249273135	-8.456143217958864	0.9211961083293013	-438.0372927799388	-24.47770503301004	-4.447013009133603	0.3584526812883996	0.3808631510097463	-0.506315739211201	-1.145134685288145	0.08520242006286811	-0.8118203058688542	1.413826828736668	-1.573408967819358	-1.573408967819363	-0.1589262257526217	-0.01194397771342778	-0.9456523270502483	0.05587407700323929	-5.015607078933321e-07	3.396096776818768e-07	7.493361474685711e-06	4.907097901599096e-07	-1.468052532665187e-06	-8.95574975250812e-07	-8.630733141927596e-07
0.51	-0.227967593323031	0.03108533226680016	0.7637109275199725	1.025458821789552	-0.361773433664061	0.002762766172995612	-0.4037406032046235	0.9926153532596149	0.9926153532596498	-0.02375196287200479	-0.1745215246715609	0.3266758103970201	0.1714057706348595	-0.7495720142411956	-0.1695650749925409	-0.5436882937684357	2.415928268414077	0.04313628039609562	0.5205675537951427	-0.2944713630651832	2.022209447050601	2.022209447050396	0.3345538039558996	0.000147342445652084	0.5239256236157913	0.2866905409350648	-0.1098444039504513	0.07963424468935705	-0.003379628510364422	-0.1997898303588259	0.008351553080793005	-0.01651906230278866	0.1205439800091701	-24.80713911571915	16.58008233815991	-8.706698740467839	0.9698511110183488	-441.5063387354932	-24.5122054814593	-3.839195855630907	0.4548310979500139	0.3994626578017581	-0.4273258215697163	-1.401056355525926	0.0001341417252294216	-0.5987761005285402	1.395979599684981	-1.774205169162397	-1.774205169144826	-0.5025745445895127	0.00655553419204231	-1.018906650267894	-0.1062176232616171	-4.785611011336623e-07	7.480665810661691e-07	7.464831345384613e-06	5.393331035630088e-07	-1.403789371694991e-06	-4.375817265801812e-07	-8.37672527047527e-07
0.52	-0.2354400134230885	0.0294098891547186	0.7582538517482014	1.049545522746667	-0.3613408704012411	0.007934027262806743	-0.4066146661494797	1.012746228213838	1.012746228214015	-0.02042611984250347	-0.1745201214104523	0.3318638506436803	0.1742688750474866	-0.7448035863218299	-0.1654971909033869	-0.5475999644108586	2.401072649351731	0.04337509859293993	0.5136453706059142	-0.2803135133063355	2.00367133435243	2.003671334352342	0.330598984618041	0.000116792451899239	0.5136077178855779	0.285878984283189	-0.1145187699862473	0.08064107894771974	-0.003869721591213564	-0.2025658885958044	0.007236509527359299	-0.01596081781992322	0.1241434026123059	-25.37356369958356	16.63778262449149	-8.945450699887084	0.9720258001997639	-444.887108548863	-24.66744882127932	-3.282062040645536	0.4883834801853799	0.413324559116247	-0.3563427875120671	-1.552685343179344	0.07414222449474873	-0.8656462657429175	1.447081948374799	-1.925100570465142	-1.925100570465162	-0.1768226148933122	-0.02020964875064837	-1.035177200232646	-0.01365058383094746	-4.545458357418903e-07	1.089560783002263e-06	7.384303845104703e-06	5.763940157418433e-07	-1.332576016515163e-06	-2.070539176085988e-09	-8.131102633930995e-07
0.53	-0.2428616893066359	0.02777584830901205	0.7527614283554717	1.073473912803655	-0.3609059010461464	0.01303530470178853	-0.4093463239037368	1.032683276751522	1.032683276751727	-0.01714029177147525	-0.1745188264376342	0.3369466476309211	0.1771224924889905	-0.7394275099618366	-0.1612924171260305	-0.5507537729513126	2.384278140879752	0.04361913312002635	0.5065689612750316	-0.2660058870240998	1.9834573720414	1.983457372041316	0.3265550096916051	0.0001254802747817249	0.5028825090976793	0.2847936102268756	-0.1192033768596484	0.08149567274293404	-0.004191666186638538	-0.2055128778540079	0.006068894850592382	-0.01559102646544805	0.127706717773961	-25.99101751363747	16.80147616509896	-9.21848203669075	1.093089100570802	-448.4393917356425	-24.69861827473473	-2.774378927252271	0.5778162816927969	0.4269571258889956	-0.2755177439537192	-1.791962000950406	-0.001610864487289556	-0.6355685506135276	1.424425546285934	-2.111534191086114	-2.111534191085449	-0.5197492658659546	0.01034907024014242	-1.101524575036964	-0.1646919820604808	-4.14073730753215e-07	1.181903000380142e-06	6.910443675636468e-06	5.575793668520042e-07	-1.211647943268057e-06	2.786609833402863e-07	-7.588395547327184e-07
